/* XPM */
static char *result[] = {
/* columns rows colors chars-per-pixel */
"32 32 150 2 ",
"   c #273532",
".  c #273533",
"X  c #273632",
"o  c #273633",
"O  c #283533",
"+  c #283632",
"@  c #283633",
"#  c #293734",
"$  c #2A3835",
"%  c #2D3B38",
"&  c #2E3B38",
"*  c #33403E",
"=  c #35413E",
"-  c #34423E",
";  c #35423F",
":  c #394643",
">  c #3C4845",
",  c #434F4C",
"<  c #44504D",
"1  c #475250",
"2  c #485451",
"3  c #495452",
"4  c #4B5754",
"5  c #4B5755",
"6  c #4B5854",
"7  c #4C5855",
"8  c #4E5A56",
"9  c #4E5A57",
"0  c #505B58",
"q  c #505C58",
"w  c #555F5C",
"e  c #54605D",
"r  c #56605E",
"t  c #57625F",
"y  c #576260",
"u  c #586360",
"i  c #596361",
"p  c #5A6562",
"a  c #5A6563",
"s  c #5B6663",
"d  c #5C6663",
"f  c #5E6866",
"g  c #5F6967",
"h  c #606A68",
"j  c #606B68",
"k  c #646D6B",
"l  c #656F6C",
"z  c #666F6C",
"x  c #65706D",
"c  c #6A7370",
"v  c #6B7471",
"b  c #6C7573",
"n  c #727A78",
"m  c #727B79",
"M  c #757D7B",
"N  c #767D7B",
"B  c #767E7D",
"V  c #79817E",
"C  c #7C8482",
"Z  c #7C8583",
"A  c #7F8683",
"S  c #818987",
"D  c #828A88",
"F  c #848C8A",
"G  c #878D8B",
"H  c #8E9594",
"J  c #919796",
"K  c #939896",
"L  c #959C9A",
"P  c #979D9A",
"I  c #999E9C",
"U  c #9EA4A3",
"Y  c #A1A7A5",
"T  c #A2A7A6",
"R  c #A7ACAB",
"E  c #A7ADAC",
"W  c #A9ACAA",
"Q  c #A8ADAC",
"!  c #ABAFAD",
"~  c #AAAFAE",
"^  c #AEB3B2",
"/  c #B3B8B7",
"(  c #B4B9B8",
")  c #B7BAB8",
"_  c #B9BCBA",
"`  c #B9BDBC",
"'  c #BBBFBE",
"]  c #C1C5C3",
"[  c #C3C5C3",
"{  c #C4C6C3",
"}  c #C1C5C4",
"|  c #C4C7C7",
" . c #C7C8C6",
".. c #C9CBCA",
"X. c #CCCECC",
"o. c #CED0CE",
"O. c #CFD0CE",
"+. c #CFD1D1",
"@. c #D0D3D2",
"#. c #D3D4D3",
"$. c #D2D5D4",
"%. c #D4D6D6",
"&. c #D4D7D6",
"*. c #D8D8D6",
"=. c #D9D9D7",
"-. c #D7D9D9",
";. c #DADAD8",
":. c #DBDBD9",
">. c #D9DBDA",
",. c #DBDBDA",
"<. c #DCDCDA",
"1. c #DBDCDC",
"2. c #DBDDDD",
"3. c #DCDEDD",
"4. c #DFDFDD",
"5. c #DDDFDE",
"6. c #DDDFDF",
"7. c #DEDFDE",
"8. c #DEE0DF",
"9. c #E1E1DF",
"0. c #DEE0E0",
"q. c #E1E1E0",
"w. c #E1E2E1",
"e. c #E2E2E1",
"r. c #E4E4E3",
"t. c gray90",
"y. c #E6E6E4",
"u. c #E6E6E5",
"i. c #E6E7E6",
"p. c #E7E7E6",
"a. c #E6E7E7",
"s. c #E7E8E8",
"d. c gray91",
"f. c #E9E9E8",
"g. c #E8E9E9",
"h. c #E9E9E9",
"j. c #EAEBEA",
"k. c gray93",
"l. c #EEEEED",
"z. c #EEEEEE",
"x. c #EFEFEE",
"c. c #EFF0EF",
"v. c #F0F0EF",
"b. c gray94",
"n. c #F1F1F0",
"m. c #F1F1F1",
"M. c gray95",
"N. c #F3F3F3",
"B. c #F4F4F4",
"V. c None",
/* pixels */
"V.V.V.V.V.V.V.V.V.V.V.V.V.V.V.V.V.V.V.V.V.V.V.V.V.V.V.V.V.V.V.V.",
"V.V.V.V.V.V.V.V.V.V.V.V.V.V.V.V.V.V.V.V.V.V.V.V.V.V.V.V.V.V.V.V.",
"V.V.V.V.V.V.V.V.V.V.V.V.V.V.V.V.V.V.V.V.V.V.V.V.V.V.V.V.V.V.V.V.",
"V.V.V.V.V.V.V.V.V.X X X X X X X X X X X O V.V.V.V.V.V.V.V.V.V.V.",
"V.V.V.V.V.V.V.V.7 w w r p s s s s s s s y V.V.V.V.V.V.V.V.V.V.V.",
"V.V.V.V.V.V.V.  G O.O.#.t.s.s.s.s.s.s.s.` = o V.V.V.V.V.V.V.V.V.",
"V.V.V.V.V.V.q c W :.q.p.M.B.B.B.B.B.B.B.%.Z x V.V.V.V.V.V.V.V.V.",
"V.V.V.V.V.  c *.=.<.k.B.B.B.B.B.B.B.B.B.B.N.R # V.V.V.V.V.V.V.V.",
"V.V.V.V.V.@ v =.e.f.m.B.B.B.B.B.B.B.B.B.B.B.Q # V.V.V.V.V.V.V.V.",
"V.V.V.V.V.@ v =.d.B.B.B.B.B.B.B.B.B.B.B.B.B.Q # V.V.V.V.V.V.V.V.",
"V.V.V.V.V.@ v =.d.B.B.B.B.B.B.B.B.B.B.B.B.B.Q # V.V.V.V.V.V.V.V.",
"V.V.V.V.V.@ v =.d.B.B.B.B.g.+.0.B.B.c.&.-.M.Q # V.V.V.V.V.V.V.V.",
"V.V.V.V.V.@ v =.d.B.B.B.B.' < H B.B.6.f b h.Q # V.V.V.V.V.V.V.V.",
"V.V.V.V.V.@ v =.d.B.B.B.B.( & S B.B.1.5 s s.Q # V.V.V.V.V.V.V.V.",
"V.V.V.V.V.@ v =.d.B.B.B.B.( & S B.B.1.5 s s.E # V.V.V.V.V.V.V.V.",
"V.V.V.V.V.@ v =.d.B.B.B.B.@.F / B.B.i.L U k.Q # V.V.V.V.V.V.V.V.",
"V.V.V.V.V.@ v =.d.B.B.B.B.B.B.B.B.B.B.B.B.B.Q # V.V.V.V.V.V.V.V.",
"V.V.V.V.V.V.8 k ! r.v.B.B.B.B.B.B.B.B.B.$.B j V.V.V.V.V.V.V.V.V.",
"V.V.V.V.V.V.V.@ A  .u.m.m.m.n.m.m.m.z.8.^ * @ V.V.V.V.V.V.V.V.V.",
"V.V.V.V.V.V.V.@ : 0 _ 4.4.4.4.4.4.4.X.l , $ @ V.V.V.V.V.V.V.V.V.",
"V.V.V.V.V.V.6 a s h I ) ,.9.9.9.9.9...2 ; u e V.V.V.V.V.V.V.V.V.",
"V.V.V.V.V.. m a.s.3.h t 5.M.M.M.M.M.>.4 u 2.T # V.V.V.V.V.V.V.V.",
"V.V.V.V.V.@ M N.x.7.i 9 6.B.B.B.B.B.1.5 i 7.Y # V.V.V.V.V.V.V.V.",
"V.V.V.V.V.@ M N.u.O.w 9 6.B.B.B.B.B.1.5 w O.P # V.V.V.V.V.V.V.V.",
"V.V.V.V.V.V.d D C V J ~ j.B.B.l.y.y.o.3 > n z V.V.V.V.V.V.V.V.V.",
"V.V.V.V.V.V.V.  @ ; } B.B.b.d.w.;.;.{ 1   @ o V.V.V.V.V.V.V.V.V.",
"V.V.V.V.V.V.V.V.@ ; } B.B.| g K ;.;.{ 1 + V.V.V.V.V.V.V.V.V.V.V.",
"V.V.V.V.V.V.V.V.V.- ] N.N./ % N ;.;.[ 1 X V.V.V.V.V.V.V.V.V.V.V.",
"V.V.V.V.V.V.V.V.V.V.V.V.V.V.V.V.V.V.V.V.V.V.V.V.V.V.V.V.V.V.V.V.",
"V.V.V.V.V.V.V.V.V.V.V.V.V.V.V.V.V.V.V.V.V.V.V.V.V.V.V.V.V.V.V.V.",
"V.V.V.V.V.V.V.V.V.V.V.V.V.V.V.V.V.V.V.V.V.V.V.V.V.V.V.V.V.V.V.V.",
"V.V.V.V.V.V.V.V.V.V.V.V.V.V.V.V.V.V.V.V.V.V.V.V.V.V.V.V.V.V.V.V."
};
