/* XPM */
static char *result[] = {
/* columns rows colors chars-per-pixel */
"32 32 201 2 ",
"   c #4F3B54",
".  c #5E3450",
"X  c #7A3655",
"o  c #365155",
"O  c #3D5A60",
"+  c #3F6062",
"@  c #3D6763",
"#  c #3B7265",
"$  c #434551",
"%  c #444D5D",
"&  c #4A485B",
"*  c #4B4B5D",
"=  c #4F4C5C",
"-  c #514B50",
";  c #534E51",
":  c #544F53",
">  c #564258",
",  c #5D475C",
"<  c #5E475D",
"1  c #5F475D",
"2  c #4B515D",
"3  c #555154",
"4  c #57565A",
"5  c #59525E",
"6  c #5D525D",
"7  c #6E514E",
"8  c #74564F",
"9  c #685454",
"0  c #6D5754",
"q  c #765B52",
"w  c #746159",
"e  c #564D61",
"r  c #445562",
"t  c #495360",
"y  c #4B5260",
"u  c #4E5463",
"i  c #445A63",
"p  c #505062",
"a  c #545463",
"s  c #545465",
"d  c #545467",
"f  c #585460",
"g  c #585464",
"h  c #5B5665",
"j  c #515967",
"k  c #575E66",
"l  c #5D5966",
"z  c #57576A",
"x  c #525B68",
"c  c #535B68",
"v  c #585869",
"b  c #5F5F71",
"n  c #645E66",
"m  c #625E6A",
"M  c #635F6A",
"N  c #456367",
"B  c #456768",
"V  c #46656B",
"C  c #45676A",
"Z  c #47696D",
"A  c #42746B",
"S  c #44706C",
"D  c #45716C",
"F  c #46756F",
"G  c #44776E",
"H  c #507F6D",
"J  c #486770",
"K  c #4A6C71",
"L  c #4C6F76",
"P  c #4E6E77",
"I  c #526676",
"U  c #546E77",
"Y  c #447E70",
"T  c #447E71",
"R  c #457F71",
"E  c #457F73",
"W  c #4E7278",
"Q  c #547079",
"!  c #5D747E",
"~  c #6A666F",
"^  c #6E6772",
"/  c #736A74",
"(  c #746C75",
")  c #767079",
"_  c #797079",
"`  c #787279",
"'  c #787478",
"]  c #797579",
"[  c #7C787B",
"{  c #9E644B",
"}  c #9E654C",
"|  c #8F6555",
" . c #936C58",
".. c #946D5A",
"X. c #8E7457",
"o. c #92775C",
"O. c #96745D",
"+. c #96745E",
"@. c #9F5873",
"#. c #A0546F",
"$. c #A25772",
"%. c #A35873",
"&. c #A35975",
"*. c #80767D",
"=. c #67826A",
"-. c #9D835D",
";. c #A38E66",
":. c #BA8B63",
">. c #BD9068",
",. c #B7986E",
"<. c #CC8A5A",
"1. c #CE8F5C",
"2. c #CF905D",
"3. c #CA9565",
"4. c #D39762",
"5. c #D59B65",
"6. c #D0A46F",
"7. c #D9A16A",
"8. c #D2AD73",
"9. c #867582",
"0. c #877586",
"q. c #BC768A",
"w. c #8F8387",
"e. c #81818F",
"r. c #918488",
"t. c #918A88",
"y. c #928C89",
"u. c #93888C",
"i. c #95898D",
"p. c #9E8F90",
"a. c #94909A",
"s. c #99969F",
"d. c #A09395",
"f. c #A49797",
"g. c #A79796",
"h. c #A89B9A",
"j. c #AB9C9B",
"k. c #9898A4",
"l. c #9F9BA4",
"z. c #BEABA5",
"x. c #CA9AAB",
"c. c #CE9EAB",
"v. c #CC9BAC",
"b. c #D19AAA",
"n. c #C3A5A5",
"m. c #D3ADB0",
"M. c #D6BFBB",
"N. c #DDBBBE",
"B. c #CFD7A4",
"V. c #D3C8BC",
"C. c #D4D5B7",
"Z. c #D4D5B8",
"A. c #DEBDC0",
"S. c #DEBDC1",
"D. c #DFBFC2",
"F. c #E0BFC2",
"G. c #ACD1C2",
"H. c #C3CEC2",
"J. c #D6CBC0",
"K. c #D7D1CF",
"L. c #DAD3C8",
"P. c #DDD5C9",
"I. c #DED8CF",
"U. c #CFCFD5",
"Y. c #D5D1D1",
"T. c #D4D1D2",
"R. c #E0D5CB",
"E. c #E2DCD3",
"W. c #E3DCD3",
"Q. c #E6DDD5",
"!. c #E3DBD9",
"~. c #E9E3DB",
"^. c #E8E4DD",
"/. c #EEE5DE",
"(. c #F1E8DF",
"). c #E3E2E1",
"_. c #E7E6E6",
"`. c #E8E6E0",
"'. c #EBE6E0",
"]. c #E9E7E2",
"[. c #EDEBE7",
"{. c #EBEAEB",
"}. c #EEECE8",
"|. c #EBEBEC",
" X c #ECEBED",
".X c #F4E8E1",
"XX c #F6ECE4",
"oX c #F8EFE7",
"OX c #F0ECE8",
"+X c #F2EEE8",
"@X c #F9EFE8",
"#X c #F2F0ED",
"$X c #FBF1EA",
"%X c #F8F0EC",
"&X c #F9F2EE",
"*X c #F7F6F5",
"=X c #FBF4F0",
"-X c #FCF6F2",
";X c #F9F8F6",
":X c #FBFBFA",
">X c None",
/* pixels */
">X>X>X>X>X>X>X>X>X>X>X>X>X>X>X>X>X>X>X>X>X>X>X>X>X>X>X>X>X>X>X>X",
">X>X>X>X>X>X>X>X>X>X>X>X>X>X>X>X>X>X>X>X>X>X>X>X>X>X>X>X>X>X>X>X",
">X>X>X>X>X>X>X>X>X>X>X>X>X>X>X>X>X>X>X>X>X>X>X>X>X>X>X>X>X>X>X>X",
">X>X>X>X>X>X>X>X>X>X>X>X>X>X>X>X>X>X>X>X>X>X>X>X>X>X>X>X>X>X>X>X",
">X>X>X>X>X>X>X>X>X>X>X>X>X>X>X>X>X>X>X>X>X>X>X>X>X>X>X>X>X>X>X>X",
">X>X>X>X>X>X>X>X>X>XI W K L Z C B w + u >X>Xd d d d d z >X>X>X>X",
">X>X>X>X>X>X>X>X>X>XP E T R T Y Y -.# t >X0.). X{._.|.U.>X>X>X>X",
">X>X>X>X>X>X>X>X>X>XV T Y Y Y Y Y ;.# t v @.'.+XC.B.Z.Y.>X>X>X>X",
">X>X>X>X>X>X>X>X>X>XN Y Y Y Y Y Y =.# t a &.^.OXG.z.m.T.>X>X>X>X",
">X>X>X>Xr u >X>X>X>XN Y Y Y Y Y Y H # t a %.P.(.H.n.M.K.>X>X>X>X",
">X>X>X>X! c >X>X>X>XN Y Y Y Y Y Y Y # t a $.oX$XoXXX@X!.e.>X>X>X",
">X>X>X>XQ j >X>X>X>XN Y Y Y Y Y Y Y # t a #..XR./.J.V.Q.l.>X>X>X",
">X>X>X>XU x >X>X>X>XN Y Y Y Y Y Y Y # t b X c.I.E.~.W.L.s.>X>X>X",
">X>X>X>XJ % * s d p N Y Y Y Y Y Y Y # t >X> x.#X[.;X:X`.k.>X>X>X",
">X>X>X>XJ 4 3.8.6.,.N Y Y Y Y Y Y Y # t >X, v.}.*X].`.#Xk.>X>X>X",
">X>X>X>XO : 1.7.7.>.N Y Y Y Y Y Y Y # t >X1 b.&X=X-X=X%Xa.>X>X>X",
">X>X>X>Xo - <.7.7.>.N Y Y Y Y Y Y Y # t >X< q.F.S.N.A.D.9.>X>X>X",
">X>X>X>Xo ; 2.7.7.>.N Y Y Y Y Y Y Y # t >Xe . . . . . .   >X>X>X",
">X>X>X>Xo 3 4.5.5.:.N Y Y Y Y Y Y Y # t >X>X>X>X>X>X>X>X>X>X>X>X",
">X>X>X>Xo $ 8 q q 0 N Y Y Y Y Y Y Y # t >X>X>X>X>X>X>X>X>X>X>X>X",
">X>X>X>Xo 2 p.p.p.& i F G D A F S S @ y >X>X>X>X>X>X>X>X>X>X>X>X",
">X>X>X>Xk ` g.g.g.( 9 O.o...X.+. . .| 5 >X>X>X>X>X>X>X>X>X>X>X>X",
">X>X>X>Xf.h.j.j.j.u.7 } } } } } } } { 6 >X>X>X>X>X>X>X>X>X>X>X>X",
">X>X>X>X>X>X>X>X>X>Xg n h _ _ _ _ = f ) >X>X>X>X>X>X>X>X>X>X>X>X",
">X>X>X>X>X>X>X>X>X>X^ t./ g.g.g.g.m ' i.>X>X>X>X>X>X>X>X>X>X>X>X",
">X>X>X>X>X>X>X>X>X>X^ y./ g.g.g.g.M ] i.>X>X>X>X>X>X>X>X>X>X>X>X",
">X>X>X>X>X>X>X>X>X>X^ [ / g.g.g.g.l ~ i.>X>X>X>X>X>X>X>X>X>X>X>X",
">X>X>X>X>X>X>X>X>X>Xw._ r.g.g.g.g.*._ d.>X>X>X>X>X>X>X>X>X>X>X>X",
">X>X>X>X>X>X>X>X>X>X>X>X>X>X>X>X>X>X>X>X>X>X>X>X>X>X>X>X>X>X>X>X",
">X>X>X>X>X>X>X>X>X>X>X>X>X>X>X>X>X>X>X>X>X>X>X>X>X>X>X>X>X>X>X>X",
">X>X>X>X>X>X>X>X>X>X>X>X>X>X>X>X>X>X>X>X>X>X>X>X>X>X>X>X>X>X>X>X",
">X>X>X>X>X>X>X>X>X>X>X>X>X>X>X>X>X>X>X>X>X>X>X>X>X>X>X>X>X>X>X>X"
};
