/* XPM */
static char *result[] = {
/* columns rows colors chars-per-pixel */
"32 32 19 1 ",
"  c #744141",
". c #7A4443",
"X c #7C4544",
"o c #824846",
"O c #864A48",
"+ c #8B4C4A",
"@ c #8D4D4A",
"# c #85504D",
"$ c #93504D",
"% c #9E5551",
"& c #915A55",
"* c #AC5C56",
"= c #98615B",
"- c #9A625C",
"; c #A06760",
": c #A46B63",
"> c #AC7268",
", c #AE746A",
"< c #B57A6F",
/* pixels */
"*% #<<<<<<<<<<<<<<<<<<<<<<<: o**",
"*% #<<<<<<<<<<<<<<<<<<<<<<<: o**",
"*% #<<<<<<<<<<<<<<<<<<<<<<<: o**",
"*% #<<<<<<<<<<<<<<<<<<<<<<<: o**",
"$+ #<<<<<<<<<<<<<<<<<<<<<<<: X$$",
"   #<<<<<<<<<<<<<<<<<<<<<<<:    ",
"&&&-<<<<<<<<<<<<<<<<<<<<<<<>&&&&",
"<<<<<<<<<<<<<<<<<<<<<<<<<<<<<<<<",
"<<<<<<<<<<<<<<<<<<<<<<<<<<<<<<<<",
"<<<<<<<<<<<<<<<<<<<<<<<<<<<<<<<<",
"<<<<<<<<<<<<<<<<<<<<<<<<<<<<<<<<",
"<<<<<<<<<<<<<<<<<<<<<<<<<<<<<<<<",
"<<<<<<<<<<<<<<<<<<<<<<<<<<<<<<<<",
"<<<<<<<<<<<<<<<<<<<<<<<<<<<<<<<<",
"<<<<<<<<<<<<<<<<<<<<<<<<<<<<<<<<",
"<<<<<<<<<<<<<<<<<<<<<<<<<<<<<<<<",
"<<<<<<<<<<<<<<<<<<<<<<<<<<<<<<<<",
"<<<<<<<<<<<<<<<<<<<<<<<<<<<<<<<<",
"<<<<<<<<<<<<<<<<<<<<<<<<<<<<<<<<",
"<<<<<<<<<<<<<<<<<<<<<<<<<<<<<<<<",
"<<<<<<<<<<<<<<<<<<<<<<<<<<<<<<<<",
"<<<<<<<<<<<<<<<<<<<<<<<<<<<<<<<<",
"===;<<<<<<<<<<<<<<<<<<<<<<<,====",
"   #<<<<<<<<<<<<<<<<<<<<<<<:    ",
"@O #<<<<<<<<<<<<<<<<<<<<<<<: .@@",
"*% #<<<<<<<<<<<<<<<<<<<<<<<: o**",
"*% #<<<<<<<<<<<<<<<<<<<<<<<: o**",
"*% #<<<<<<<<<<<<<<<<<<<<<<<: o**",
"*% #<<<<<<<<<<<<<<<<<<<<<<<: o**",
"*% #<<<<<<<<<<<<<<<<<<<<<<<: o**",
"*% #<<<<<<<<<<<<<<<<<<<<<<<: o**",
"*% #<<<<<<<<<<<<<<<<<<<<<<<: o**"
};
