/* XPM */
static char *f89bcfba068445a9bfa2db5d28fdc41dnXCP6WiIpHn49lWQ[] = {
/* columns rows colors chars-per-pixel */
"32 32 13 1 ",
"  c None",
". c black",
"X c #362523",
"o c #432C2C",
"O c #513A31",
"+ c #222951",
"@ c #A86F4B",
"# c #C38550",
"$ c #EB9D6C",
"% c #31529A",
"& c #346BC3",
"* c #D7A08F",
"= c #EBBBA6",
/* pixels */
"      OO$$############$$OO      ",
"      OO$$############$$OO      ",
"    OO##$$$$$$####$$$$$$##OO    ",
"    OO##$$$$$$####$$$$$$##OO    ",
"    OO@@##$$########$$##@@OO    ",
"    OO@@##$$########$$##@@OO    ",
"    OO####################OO    ",
"    OO####################OO    ",
"    OO####################OO    ",
"    OO####################OO    ",
"    OO@@################@@OO    ",
"    OO@@################@@OO    ",
"      OO@@############@@OO      ",
"      OO@@############@@OO      ",
"    ++%%OO@@@@@@@@@@@@OO%%++    ",
"    ++%%OO@@@@@@@@@@@@OO%%++    ",
"  ++%%&&%%OOOOOOOOOOOO%%&&%%++  ",
"  ++%%&&%%OOOOOOOOOOOO%%&&%%++  ",
"++%%&&%%&&%%%%%%%%%%%%&&%%&&%%++",
"++%%&&%%&&%%%%%%%%%%%%&&%%&&%%++",
"oo**&&++&&&&&&&&&&&&&&&&++&&**oo",
"oo**&&++&&&&&&&&&&&&&&&&++&&**oo",
"oo====++%%&&&&&&&&&&&&%%++====oo",
"oo====++%%&&&&&&&&&&&&%%++====oo",
"  oooo..++%%%%%%%%%%%%++..oooo  ",
"  oooo..++%%%%%%%%%%%%++..oooo  ",
"      XXOO++++++++++++OOXX      ",
"      XXOO++++++++++++OOXX      ",
"      XX@@@@@@@@@@@@@@@@XX      ",
"      XX@@@@@@@@@@@@@@@@XX      ",
"      XX@@####XXXX####@@XX      ",
"      XX@@####XXXX####@@XX      "
};
