/* XPM */
static char *_dc47b1778c64246fad62ec2841ef31cmWOYfbqHEGZCfl3h[] = {
/* columns rows colors chars-per-pixel */
"32 32 15 1 ",
"  c None",
". c black",
"X c #362523",
"o c #432C2C",
"O c #513A31",
"+ c #222951",
"@ c #A86F4B",
"# c #C38550",
"$ c #EB9D6C",
"% c #31529A",
"& c #346BC3",
"* c #34A2C3",
"= c #D7A08F",
"- c #EBBBA6",
"; c #F8D8B8",
/* pixels */
"      OO$$$$##############OO    ",
"      OO$$$$##############OO    ",
"    OO##$$$$$$######OO######OO  ",
"    OO##$$$$$$######OO######OO  ",
"    OO####$$$$$$##@@OO####--OO  ",
"    OO####$$$$$$##@@OO####--OO  ",
"    oo####OO####@@OO--;;;;;;oo  ",
"    oo####OO####@@OO--;;;;;;oo  ",
"    oo@@##--####OO;;;;;;;;;;oo  ",
"    oo@@##--####OO;;;;;;;;;;oo  ",
"    ooOO;;;;##@@;;;;;;..;;--oo  ",
"    ooOO;;;;##@@;;;;;;..;;--oo  ",
"      oo==--;;;;;;;;;;;;;;oo    ",
"      oo==--;;;;;;;;;;;;;;oo    ",
"        oo==----------==oo      ",
"        oo==----------==oo      ",
"        ++oooooooooooooo        ",
"        ++oooooooooooooo        ",
"        ++%%&&%%%%%%**++        ",
"        ++%%&&%%%%%%**++        ",
"        ++%%++&&&&++**++        ",
"        ++%%++&&&&++**++        ",
"        ++%%++&&&&++&&++        ",
"        ++%%++&&&&++&&++        ",
"        ++%%++%%%%++%%++        ",
"        ++%%++%%%%++%%++        ",
"        ++++oo----oo++..        ",
"        ++++oo----oo++..        ",
"          XXOOoooo@@XX          ",
"          XXOOoooo@@XX          ",
"          XX@@@@####XX          ",
"          XX@@@@####XX          "
};
