/* XPM */
static char *result[] = {
/* columns rows colors chars-per-pixel */
"32 42 14 1 ",
"  c black",
". c #362523",
"X c #432C2C",
"o c #513A31",
"O c #222951",
"+ c #2A3572",
"@ c #A86F4B",
"# c #C38550",
"$ c #EB9D6C",
"% c #31529A",
"& c #346BC3",
"* c #D7A08F",
"= c #EBBBA6",
"- c None",
/* pixels */
"------------oooooooo------------",
"------------oooooooo------------",
"--------oooo@@####@@oooo--------",
"--------oooo@@####@@oooo--------",
"------oo@@############@@oo------",
"------oo@@############@@oo------",
"------oo$$############$$oo------",
"------oo$$############$$oo------",
"----oo##$$$$$$####$$$$$$##oo----",
"----oo##$$$$$$####$$$$$$##oo----",
"----oo@@##$$########$$##@@oo----",
"----oo@@##$$########$$##@@oo----",
"----oo####################oo----",
"----oo####################oo----",
"----oo####################oo----",
"----oo####################oo----",
"----oo@@################@@oo----",
"----oo@@################@@oo----",
"------oo@@############@@oo------",
"------oo@@############@@oo------",
"----OO%%oo@@@@@@@@@@@@oo%%OO----",
"----OO%%oo@@@@@@@@@@@@oo%%OO----",
"--OO%%&&%%oooooooooooo%%&&%%OO--",
"--OO%%&&%%oooooooooooo%%&&%%OO--",
"OO%%&&%%&&%%%%%%%%%%%%&&%%&&%%OO",
"OO%%&&%%&&%%%%%%%%%%%%&&%%&&%%OO",
"XX**&&OO&&&&&&&&&&&&&&&&OO&&**XX",
"XX**&&OO&&&&&&&&&&&&&&&&OO&&**XX",
"XX====OO%%&&&&&&&&&&&&%%OO====XX",
"XX====OO%%&&&&&&&&&&&&%%OO====XX",
"--XXXX  OO%%%%%%%%%%%%OO  XXXX--",
"--XXXX  OO%%%%%%%%%%%%OO  XXXX--",
"------..ooOOOOOOOOOOOOoo..------",
"------..ooOOOOOOOOOOOOoo..------",
"------..@@@@@@@@@@@@@@@@..------",
"------..@@@@@@@@@@@@@@@@..------",
"------..@@####....####@@..------",
"------..@@####....####@@..------",
"------  ++++  ----  ++++  ------",
"------  ++++  ----  ++++  ------",
"--------    --------    --------",
"--------    --------    --------"
};
