/* XPM */
static char *result[] = {
/* columns rows colors chars-per-pixel */
"32 42 16 1 ",
"  c black",
". c #362523",
"X c #432C2C",
"o c #513A31",
"O c #222951",
"+ c #2A3572",
"@ c #A86F4B",
"# c #C38550",
"$ c #EB9D6C",
"% c #31529A",
"& c #346BC3",
"* c #34A2C3",
"= c #D7A08F",
"- c #EBBBA6",
"; c #F8D8B8",
": c None",
/* pixels */
"::::::::::::oooooooooo::::::::::",
"::::::::::::oooooooooo::::::::::",
"::::::::oooo@@######@@oooo::::::",
"::::::::oooo@@######@@oooo::::::",
"::::::oo@@##############@@oo::::",
"::::::oo@@##############@@oo::::",
"::::::oo$$$$##############oo::::",
"::::::oo$$$$##############oo::::",
"::::oo##$$$$$$######oo######oo::",
"::::oo##$$$$$$######oo######oo::",
"::::oo####$$$$$$##@@oo####--oo::",
"::::oo####$$$$$$##@@oo####--oo::",
"::::XX####oo####@@oo--;;;;;;XX::",
"::::XX####oo####@@oo--;;;;;;XX::",
"::::XX@@##--####oo;;;;;;;;;;XX::",
"::::XX@@##--####oo;;;;;;;;;;XX::",
"::::XXoo;;;;##@@;;;;;;  ;;--XX::",
"::::XXoo;;;;##@@;;;;;;  ;;--XX::",
"::::::XX==--;;;;;;;;;;;;;;XX::::",
"::::::XX==--;;;;;;;;;;;;;;XX::::",
"::::::::XX==----------==XX::::::",
"::::::::XX==----------==XX::::::",
"::::::::OOXXXXXXXXXXXXXX::::::::",
"::::::::OOXXXXXXXXXXXXXX::::::::",
"::::::::OO%%&&%%%%%%**OO::::::::",
"::::::::OO%%&&%%%%%%**OO::::::::",
"::::::::OO%%OO&&&&OO**OO::::::::",
"::::::::OO%%OO&&&&OO**OO::::::::",
"::::::::OO%%OO&&&&OO&&OO::::::::",
"::::::::OO%%OO&&&&OO&&OO::::::::",
"::::::::OO%%OO%%%%OO%%OO::::::::",
"::::::::OO%%OO%%%%OO%%OO::::::::",
"::::::::OOOOXX----XXOO  ::::::::",
"::::::::OOOOXX----XXOO  ::::::::",
"::::::::::..ooXXXX@@..::::::::::",
"::::::::::..ooXXXX@@..::::::::::",
"::::::::::..@@@@####..::::::::::",
"::::::::::..@@@@####..::::::::::",
"::::::::::::  ++++++  ::::::::::",
"::::::::::::  ++++++  ::::::::::",
"::::::::::::::      ::::::::::::",
"::::::::::::::      ::::::::::::"
};
