/* XPM */
static char *_26737b4de394bb5b314c070b598b295eHwjcbhVLvU7AzWI[] = {
/* columns rows colors chars-per-pixel */
"32 32 15 1 ",
"  c None",
". c black",
"X c #362523",
"o c #432C2C",
"O c #513A31",
"+ c #222951",
"@ c #A86F4B",
"# c #C38550",
"$ c #EB9D6C",
"% c #31529A",
"& c #346BC3",
"* c #34A2C3",
"= c #D7A08F",
"- c #EBBBA6",
"; c #F8D8B8",
/* pixels */
"      OO$$############$$OO      ",
"      OO$$############$$OO      ",
"    OO##$$$$$$####$$$$$$##OO    ",
"    OO##$$$$$$####$$$$$$##OO    ",
"    OO@@##$$##OOOO##$$##@@OO    ",
"    OO@@##$$##OOOO##$$##@@OO    ",
"    OOOO######----######OOOO    ",
"    OOOO######----######OOOO    ",
"    oo;;@@--;;;;;;;;--@@;;oo    ",
"    oo;;@@--;;;;;;;;--@@;;oo    ",
"    oo==----..----..----==oo    ",
"    oo==----..----..----==oo    ",
"      oo--;;;;;;;;;;;;--oo      ",
"      oo--;;;;;;;;;;;;--oo      ",
"    ++%%oo==--------==oo%%++    ",
"    ++%%oo==--------==oo%%++    ",
"  ++%%&&%%oooooooooooo%%&&%%++  ",
"  ++%%&&%%oooooooooooo%%&&%%++  ",
"++%%&&&&&&%%%%%%%%%%%%&&&&&&%%++",
"++%%&&&&&&%%%%%%%%%%%%&&&&&&%%++",
"oo==--%%++&&**&&****&&++%%--==oo",
"oo==--%%++&&**&&****&&++%%--==oo",
"oo--;;++%%&&**&&&&**&&%%++;;--oo",
"oo--;;++%%&&**&&&&**&&%%++;;--oo",
"  oooo..++%%%%%%%%%%%%++..oooo  ",
"  oooo..++%%%%%%%%%%%%++..oooo  ",
"      XXOO++++++++++++OOXX      ",
"      XXOO++++++++++++OOXX      ",
"      XX@@@@@@@@@@@@@@@@XX      ",
"      XX@@@@@@@@@@@@@@@@XX      ",
"      XX@@####XXXX####@@XX      ",
"      XX@@####XXXX####@@XX      "
};
