/* XPM */
static char *_9b4917467914629e41ba630c27a4ecedVVYwKLxnIKldvG6[] = {
/* columns rows colors chars-per-pixel */
"128 128 24 1 ",
"  c None",
". c #273533",
"X c #283632",
"o c #283633",
"O c #555F5C",
"+ c #5B6663",
"@ c #646D6A",
"# c #6C7574",
"$ c #818785",
"% c #818886",
"& c #888F8D",
"* c #8D9593",
"= c #8E9594",
"- c #AEB1AF",
"; c #B4B8B6",
": c #BBBEBD",
"> c #C1C5C4",
", c #D9D9D7",
"< c #DADAD8",
"1 c #E1E1DF",
"2 c #E7E7E6",
"3 c #EEEEED",
"4 c #F3F3F3",
"5 c #F4F4F4",
/* pixels */
"                                                                                                                                ",
"                                                                                                                                ",
"                                                                                                                                ",
"                                                                                                                                ",
"                                                                                                                                ",
"                                                                                                                                ",
"                                                                                                                                ",
"                                                                                                                                ",
"                                                                                                                                ",
"                                                                                                                                ",
"                                                                                                                                ",
"                                                                                                                                ",
"                                                                                                                                ",
"                                                                                                                                ",
"                                                                                                                                ",
"                                                                                                                                ",
"                                                                                                                                ",
"                                                                                                                                ",
"                                                                                                                                ",
"                                                                                                                                ",
"                                                                                                                                ",
"                                                                                                                                ",
"                                                                                                                                ",
"                                                                                                                                ",
"                                                                                                                                ",
"                                                                                                                                ",
"                                                                                                                                ",
"                                                                                                                                ",
"                                                                                                                                ",
"                                                                                                                                ",
"                                                                                                                                ",
"                                                                                                                                ",
"                                                                                                                                ",
"                                                                                                                                ",
"                                                                                                                                ",
"                                                                                                                                ",
"                                                                                                                                ",
"                                                                                                                                ",
"                                                                                                                                ",
"                                                                                                                                ",
"                                                                                                                                ",
"                                                                                                                                ",
"                                                                                                                                ",
"                                                                                                                                ",
"                                                                                                                                ",
"                                                                                                                                ",
"                                                                                                                                ",
"                                                                                                                                ",
"                                                                                                                                ",
"                                                                                                                                ",
"                                                                                                                                ",
"                                                                                                                                ",
"                                                                                                                                ",
"                                                                                                                                ",
"                                                                                                                                ",
"                                                                                                                                ",
"                                                                                                                                ",
"                                                                                                                                ",
"                                                                                                                                ",
"                                                              .............                                                     ",
"                                                             .ooooooooooooo.                                                    ",
"                                                            .@%%%&=========#.                                                   ",
"                                                           .o%<<<2555555555=o.                                                  ",
"                                                          .@%-<123555555555>=#.                                                 ",
"                                                         .o%<<<25555555555555=o.                                                ",
"                                                         .o%<1235555555555555=o.                                                ",
"                                                         .o%<2555555555555555=o.                                                ",
"                                                         .o%<2555555555555555=o.                                                ",
"                                                         .o%<2555555555555555=o.                                                ",
"                                                         .o%<255555>=>555>=>5=o.                                                ",
"                                                         .o%<255555=o=555=o=5=o.                                                ",
"                                                         .o%<255555=o=555=o=5=o.                                                ",
"                                                         .o%<255555=o=555=o=5=o.                                                ",
"                                                         .o%<255555>=>555>=>5=o.                                                ",
"                                                         .o%<2555555555555555=o.                                                ",
"                                                          .@%;2355555555555>=#.                                                 ",
"                                                           .o%<255555555555=o.                                                  ",
"                                                           .oO%;222222222:=+o.                                                  ",
"                                                           .ooo%<<<<<<<<<%ooo.                                                  ",
"                                                          .#===&%;2222222&o+=#.                                                 ",
"                                                         .o=555=o=5555555=o=5=o.                                                ",
"                                                         .o=532&o=5555555=o&2&o.                                                ",
"                                                         .o=52<%o=5555555=o%<%o.                                                ",
"                                                          .#=&%&=>5553222&oO%@.                                                 ",
"                                                           .ooo=555552<<<%ooo.                                                  ",
"                                                            .oo=555>=;<<<%oo.                                                   ",
"                                                             .o=555=o%<<<%o.                                                    ",
"                                                              .*444*.$,,,$.                                                     ",
"                                                                                                                                ",
"                                                                                                                                ",
"                                                                                                                                ",
"                                                                                                                                ",
"                                                                                                                                ",
"                                                                                                                                ",
"                                                                                                                                ",
"                                                                                                                                ",
"                                                                                                                                ",
"                                                                                                                                ",
"                                                                                                                                ",
"                                                                                                                                ",
"                                                                                                                                ",
"                                                                                                                                ",
"                                                                                                                                ",
"                                                                                                                                ",
"                                                                                                                                ",
"                                                                                                                                ",
"                                                                                                                                ",
"                                                                                                                                ",
"                                                                                                                                ",
"                                                                                                                                ",
"                                                                                                                                ",
"                                                                                                                                ",
"                                                                                                                                ",
"                                                                                                                                ",
"                                                                                                                                ",
"                                                                                                                                ",
"                                                                                                                                ",
"                                                                                                                                ",
"                                                                                                                                ",
"                                                                                                                                ",
"                                                                                                                                ",
"                                                                                                                                ",
"                                                                                                                                ",
"                                                                                                                                ",
"                                                                                                                                ",
"                                                                                                                                ",
"                                                                                                                                ",
"                                                                                                                                "
};
