/* XPM */
static char *_ff835c521f940ba8f6aba116ebc85857tvtvpOyNYcGEyrX[] = {
/* columns rows colors chars-per-pixel */
"32 32 15 1 ",
"  c None",
". c black",
"X c #362523",
"o c #432C2C",
"O c #513A31",
"+ c #222951",
"@ c #A86F4B",
"# c #C38550",
"$ c #EB9D6C",
"% c #31529A",
"& c #346BC3",
"* c #34A2C3",
"= c #D7A08F",
"- c #EBBBA6",
"; c #F8D8B8",
/* pixels */
"    OO##############$$$$OO      ",
"    OO##############$$$$OO      ",
"  OO######OO######$$$$$$##OO    ",
"  OO######OO######$$$$$$##OO    ",
"  OO--####OO@@##$$$$$$####OO    ",
"  OO--####OO@@##$$$$$$####OO    ",
"  oo;;;;;;--OO@@####OO####oo    ",
"  oo;;;;;;--OO@@####OO####oo    ",
"  oo;;;;;;;;;;OO####--##@@oo    ",
"  oo;;;;;;;;;;OO####--##@@oo    ",
"  oo--;;..;;;;;;@@##;;;;OOoo    ",
"  oo--;;..;;;;;;@@##;;;;OOoo    ",
"    oo;;;;;;;;;;;;;;--==oo      ",
"    oo;;;;;;;;;;;;;;--==oo      ",
"      oo==----------==oo        ",
"      oo==----------==oo        ",
"        oooooooooooooo++        ",
"        oooooooooooooo++        ",
"        ++**%%++++&&%%++        ",
"        ++**%%++++&&%%++        ",
"        ++**++&&&&++%%++        ",
"        ++**++&&&&++%%++        ",
"        ++&&++&&&&++%%++        ",
"        ++&&++&&&&++%%++        ",
"        ++%%++%%%%++%%++        ",
"        ++%%++%%%%++%%++        ",
"        ++++oo----oo++++        ",
"        ++++oo----oo++++        ",
"          XX@@ooooOOXX          ",
"          XX@@ooooOOXX          ",
"          XX####@@@@XX          ",
"          XX####@@@@XX          "
};
