/* XPM */
static char *c0f5c495c65a43b4db0e1b39c60fde9bEp9yB2Hel9k5nwQB[] = {
/* columns rows colors chars-per-pixel */
"32 32 21 1 ",
"  c None",
". c #FDF8F8",
"X c #FDF9F9",
"o c #FCFAFA",
"O c #FDFAFA",
"+ c #FDFAFB",
"@ c #FCFBFB",
"# c #FDFBFB",
"$ c #FEFBFB",
"% c #FDFAFC",
"& c #FDFBFD",
"* c #FEFBFD",
"= c #FDFCFC",
"- c #FDFCFD",
"; c #FDFDFD",
": c #FEFCFC",
"> c #FFFCFC",
", c #FEFCFD",
"< c #FEFDFD",
"1 c #FFFDFD",
"2 c #FEFEFE",
/* pixels */
"                                ",
"                                ",
"                                ",
"                                ",
"               OO               ",
"                                ",
"              =  O              ",
"        O     %  %     %        ",
"       O  O          O  O       ",
"            %     OO    =       ",
"        =    =    =    O        ",
"             %O  OO    O        ",
"         O   % %O O   %         ",
"          =O========%=O         ",
"      OO%  O =O   = O  O==      ",
"    O       O=    =OO      %    ",
"    =       O=    ==       O    ",
"      O=   % =    = O   OO=     ",
"         O=O========O=O         ",
"         O   O %= O   O         ",
"             =OO O=             ",
"        =    =    =    O        ",
"            %O    OO            ",
"       O  OO         O  O       ",
"        =O    O  =    =O        ",
"              O  O              ",
"                 =              ",
"               %O               ",
"                                ",
"                                ",
"                                ",
"                                "
};
