/* XPM */
static char *result[] = {
/* columns rows colors chars-per-pixel */
"32 32 49 1 ",
"  c #585868",
". c #B95159",
"X c #B95259",
"o c #BA5359",
"O c #BA535A",
"+ c #BA545A",
"@ c #BB555A",
"# c #BB565A",
"$ c #BB565B",
"% c #BB575B",
"& c #BC585B",
"* c #BC595B",
"= c #BD5A5C",
"- c #BD5B5C",
"; c #BD5C5C",
": c #BE5D5D",
"> c #BE5E5D",
", c #BF605E",
"< c #B15860",
"1 c #C0625E",
"2 c #C2665F",
"3 c #C2675F",
"4 c #C26860",
"5 c #C36960",
"6 c #C36B61",
"7 c #C46B61",
"8 c #C46C61",
"9 c #C46D62",
"0 c #C56E62",
"q c #C57063",
"w c #C67364",
"e c #C77364",
"r c #CA7A65",
"t c #C97966",
"y c #CA7B66",
"u c #CC7F67",
"i c #CC8067",
"p c #CC8068",
"a c #CD8368",
"s c #CE8469",
"d c #CE8569",
"f c #CE8669",
"g c #CF8669",
"h c #D0886A",
"j c #D0896A",
"k c #D08B6B",
"l c #D18B6B",
"z c #D18C6B",
"x c #877A82",
/* pixels */
"zzzzzzzzzzzzzzzzzzzzzzzzzzzzzzzz",
"zzzzzzzzzzzzzzzzzzzzzzzzzzzzzzzz",
"zzzzzzzzzzzzzzzzzzzzzzzzzzzzzzzz",
"zzzzzzzzzzzzzzzzzzzzzzzzzzzzzzzz",
"zzzzzzzzzzzzzzzzzzzzzzzzzzzzzzzz",
"zzzzzzzzzzzzzzzzzzzzzzzzzzzzzzzz",
"zzzzzzzzzzzzzzzzzzzzzzzzzzzzzzzz",
"zzzzzzzzzzzzzzzzzzzzzzzzzzzzzzzz",
"zzzzzzzzzzzzzzzzzzzzzzzzzzzzzzzz",
"zzzzzzzzzzzzzzzzzzzzzzzzzzzzzzzz",
"zzzzzzzzzzzzzzzzzzzzzzzzzzzzzzzz",
"jjjjjjjjjjjjjjjjjjjjjjjjjjjjjjjj",
">>>>>>>>>>>>>>>>>>>>>>>>>>>>>>>>",
"+407%......:001#6000000000000000",
"$uld;o@@@@X5llw-slllllllllllllll",
"$izf;1iiir&5zzw-dzzzzzzzzzzzzzzz",
"$izf;3hets=5zzw-dzzzzzzzzzzzzzzz",
"$izf;3d,7s=5zzw-dzzzzzzzzzzzzzzz",
"$izf;3kads=5zzw-dzzzzzzzzzzzzzzz",
"$izf;-9995@5zzw-dzzzzzzzzzzzzzzz",
"#ygp-......2ggq=iggggggggggggggg",
"X*-=O......@--%o=---------------",
"................................",
"&&&&&&&&&&&&&&&&&&&&&&&&&&&&&&&&",
"aaaaaaaaaaaaaaaaaaaaaaaaaaaaaaaa",
"88888888888888888888888888888888",
"................................",
"................................",
"................................",
"<<<<<<<<<<<<<<<<<<<<<<<<<<<<<<<<",
"xxxxxxxxxxxxxxxxxxxxxxxxxxxxxxxx",
"                                "
};
